<?xml version="1.0" encoding="iso-8859-1"?>
<!-- Generator: Adobe Illustrator 16.0.0, SVG Export Plug-In . SVG Version: 6.00 Build 0)  -->
<!DOCTYPE svg PUBLIC "-//W3C//DTD SVG 1.1//EN" "http://www.w3.org/Graphics/SVG/1.1/DTD/svg11.dtd">
<svg version="1.1" id="Capa_1" xmlns="http://www.w3.org/2000/svg" xmlns:xlink="http://www.w3.org/1999/xlink" x="0px" y="0px"
	 width="60px" height="60px" viewBox="0 0 60.822 60.822" style="enable-background:new 0 0 60.822 60.822;"
	 xml:space="preserve">
<g>
	<g>
		<path d="M30.411,25.415c5.539,0,23.613-0.547,23.613-7.574c0-1.558-1.264-2.822-2.821-2.822c-0.917,0-1.726,0.441-2.24,1.12
			c-0.319-3.703-1.129-9.585-3.156-12.655c-3.096-4.692-9.805-3.285-9.805-3.285S33.421,0,33.421,4.29
			c0,1.89-2.081,2.126-2.877,2.147c-0.008,0-0.024,0-0.036,0.001C30.473,6.439,30.44,6.44,30.411,6.44c-0.029,0-0.062,0-0.097-0.001
			c-0.012,0-0.027,0-0.036-0.001C29.483,6.416,27.4,6.181,27.4,4.291c0-4.29-2.58-4.092-2.58-4.092s-6.709-1.408-9.805,3.285
			c-2.025,3.07-2.837,8.952-3.156,12.655c-0.516-0.677-1.324-1.12-2.241-1.12c-1.558,0-2.822,1.264-2.822,2.822
			C6.797,24.869,24.872,25.415,30.411,25.415z M13.184,14.26c0,0,9.968,1.402,17.364,1.41c7.283-0.008,17.098-1.41,17.098-1.41
			c0.129,1.134,0.234,2.25,0.308,3.106c-2.127,1.022-8.152,2.405-17.541,2.405c-9.388,0-15.412-1.383-17.541-2.404
			C12.945,16.51,13.052,15.395,13.184,14.26z"/>
		<path d="M12.359,41.837c1.561,1.95,4.381,0,4.381,0s0.3,11.702,2.38,13.263c2.08,1.561,2.471-3.121,2.471-3.121
			s0.39,6.112,1.82,7.021c1.432,0.91,3.381-2.989,3.381-2.989s0.261,4.811,3.38,4.811c0.084,0,0.163-0.024,0.239-0.059
			c0.075,0.034,0.153,0.059,0.237,0.059c3.122,0,3.38-4.811,3.38-4.811S35.98,59.911,37.411,59c1.43-0.909,1.82-7.021,1.82-7.021
			s0.39,4.682,2.471,3.121c2.082-1.561,2.381-13.263,2.381-13.263s2.82,1.95,4.381,0c1.428-1.783-3.407-5.528-4.247-6.158
			c1.09,0.31,1.68,0.634,1.68,0.634c0.439-5.454-5.193-6.981-8.299-7.409c-0.569-0.099-1.174-0.154-1.802-0.163
			c-0.108-0.004-0.173-0.004-0.173-0.004c-2.159,0-4.065,0.571-5.211,1.441c-1.146-0.871-3.051-1.441-5.211-1.441
			c0,0-0.064,0.001-0.173,0.004c-0.628,0.01-1.232,0.065-1.802,0.163c-3.105,0.428-8.738,1.956-8.298,7.409
			c0,0,0.59-0.324,1.678-0.634C15.766,36.309,10.932,40.054,12.359,41.837z M24.293,35.418c2.59,0.457,4.777-1.202,6.118-2.075
			c1.341,0.873,3.526,2.531,6.117,2.075c1.759-0.31,3.296-0.351,4.597-0.263c-1.088,0.379-2.113,1.37-4.626,2.132
			c-4.29,1.3-5.851,0.13-5.851,0.13s-2.037,1.17-6.327-0.13c-2.512-0.762-3.537-1.752-4.625-2.132
			C20.996,35.067,22.534,35.108,24.293,35.418z"/>
	</g>
</g>
<g>
</g>
<g>
</g>
<g>
</g>
<g>
</g>
<g>
</g>
<g>
</g>
<g>
</g>
<g>
</g>
<g>
</g>
<g>
</g>
<g>
</g>
<g>
</g>
<g>
</g>
<g>
</g>
<g>
</g>
</svg>
