<?xml version="1.0" encoding="iso-8859-1"?>
<!-- Generator: Adobe Illustrator 19.0.0, SVG Export Plug-In . SVG Version: 6.00 Build 0)  -->
<svg xmlns="http://www.w3.org/2000/svg" xmlns:xlink="http://www.w3.org/1999/xlink" version="1.1" id="Capa_1" x="0px" y="0px" viewBox="0 0 372 372" style="enable-background:new 0 0 372 372;" xml:space="preserve" width="512px" height="512px">
<g>
	<g>
		<path d="M320,77.48h-66.88V38.52c0-8.837-7.163-16-16-16H134.8c-8.837,0-16,7.163-16,16v38.96H52c-24,0-52,13.12-52,50.08V299.4    c0,36.96,28,50.08,52,50.08h268c38.4,0,52-26.96,52-50.08V127.64C372,90.6,344,77.48,320,77.48z M134.88,38.6l102.24-0.08v38.96    H134.88V38.6z M320,333.4H52c-10.8,0-36-3.36-36-34.08v-56.48h120c-0.032,0.586-0.032,1.174,0,1.76v24.72    c-0.001,9.809,7.95,17.761,17.758,17.762c0.081,0,0.161-0.001,0.242-0.002h24v16c0,4.418,3.582,8,8,8s8-3.582,8-8v-16h24    c9.809,0,17.76-7.951,17.76-17.76c0,0,0,0,0,0V244.6c0.032-0.586,0.032-1.174,0-1.76h120l0.24,56.48    C356,309.56,352.48,333.4,320,333.4z M186,249c-4.418,0-8,3.582-8,8v14.08h-24c-0.972,0-1.76-0.788-1.76-1.76V244.6    c0-0.972,0.788-1.76,1.76-1.76h64c0.972,0,1.76,0.788,1.76,1.76c0,0,0,0,0,0v24.72c0,0.972-0.788,1.76-1.76,1.76c0,0,0,0,0,0h-24    V257C194,252.582,190.418,249,186,249z M356,226.84H16v-99.2c0-30.8,25.2-34.08,36-34.08h268c10.8,0,36,3.28,36,34.08V226.84z" fill="#006DF0"/>
	</g>
</g>
<g>
</g>
<g>
</g>
<g>
</g>
<g>
</g>
<g>
</g>
<g>
</g>
<g>
</g>
<g>
</g>
<g>
</g>
<g>
</g>
<g>
</g>
<g>
</g>
<g>
</g>
<g>
</g>
<g>
</g>
</svg>
