<?xml version="1.0" encoding="iso-8859-1"?>
<!-- Generator: Adobe Illustrator 19.0.0, SVG Export Plug-In . SVG Version: 6.00 Build 0)  -->
<svg xmlns="http://www.w3.org/2000/svg" xmlns:xlink="http://www.w3.org/1999/xlink" version="1.1" id="Capa_1" x="0px" y="0px" viewBox="0 0 434.64 434.64" style="enable-background:new 0 0 434.64 434.64;" xml:space="preserve" width="512px" height="512px">
<g>
	<g>
		<path d="M256.4,217.36c-0.044-21.53-17.51-38.96-39.04-38.96c-21.561,0-39.04,17.479-39.04,39.04    c0,21.561,17.479,39.04,39.04,39.04s39.04-17.479,39.04-39.04C256.4,217.413,256.4,217.387,256.4,217.36z M217.36,240.4    C217.36,240.4,217.36,240.4,217.36,240.4c-12.725,0-23.04-10.315-23.04-23.04c0-12.725,10.315-23.04,23.04-23.04    c12.725,0,23.04,10.315,23.04,23.04C240.4,230.085,230.085,240.4,217.36,240.4z" fill="#FFDA44"/>
	</g>
</g>
<g>
	<g>
		<path d="M426.64,209.36h-38.72c-4.226-87.97-74.59-158.334-162.56-162.56V8c0-4.418-3.582-8-8-8s-8,3.582-8,8v38.72    C121.361,50.949,50.986,121.359,46.8,209.36H8c-4.418,0-8,3.582-8,8s3.582,8,8,8h38.72c4.229,87.999,74.639,158.374,162.64,162.56    v38.72c0,4.418,3.582,8,8,8s8-3.582,8-8v-38.72c87.97-4.226,158.334-74.59,162.56-162.56h38.72c4.418,0,8-3.582,8-8    S431.058,209.36,426.64,209.36z M334,225.36h37.92c-4.186,79.144-67.416,142.374-146.56,146.56V334c0-4.418-3.582-8-8-8    s-8,3.582-8,8v37.92c-79.144-4.186-142.374-67.416-146.56-146.56h37.92c4.418,0,8-3.582,8-8s-3.582-8-8-8H62.8    c4.186-79.144,67.416-142.374,146.56-146.56v37.92c0,4.418,3.582,8,8,8s8-3.582,8-8V62.8    c79.144,4.186,142.374,67.416,146.56,146.56H334c-4.418,0-8,3.582-8,8S329.582,225.36,334,225.36z" fill="#FFDA44"/>
	</g>
</g>
<g>
</g>
<g>
</g>
<g>
</g>
<g>
</g>
<g>
</g>
<g>
</g>
<g>
</g>
<g>
</g>
<g>
</g>
<g>
</g>
<g>
</g>
<g>
</g>
<g>
</g>
<g>
</g>
<g>
</g>
</svg>
